{"scene":0,"asset":{"generator":"ImageToStl.com","version":"2.0"},"scenes":[{"name":"Scene","nodes":[0]}],"nodes":[{"name":"Node0","children":[1,2,3,4,5,6,7,8,9,10,11,12,13,14,15,16,17]},{"name":"Node1","mesh":0},{"name":"Node2","mesh":1},{"name":"Node3","mesh":2},{"name":"Node4","mesh":3},{"name":"Node5","mesh":4},{"name":"Node6","mesh":5},{"name":"Node7","mesh":6},{"name":"Node8","mesh":7},{"name":"Node9","mesh":8},{"name":"Node10","mesh":9},{"name":"Node11","mesh":10},{"name":"Node12","mesh":11},{"name":"Node13","mesh":12},{"name":"Node14","mesh":13},{"name":"Node15","mesh":14},{"name":"Node16","mesh":15},{"name":"Node17","mesh":16}],"materials":[{"name":"x1","pbrMetallicRoughness":{"baseColorFactor":[0.85,0.85,0.85,1.0],"metallicFactor":0.05,"roughnessFactor":0.5},"doubleSided":true}],"meshes":[{"name":"Mesh0","primitives":[{"indices":2,"material":0,"attributes":{"POSITION":0,"NORMAL":1}}]},{"name":"Mesh0","primitives":[{"indices":5,"material":0,"attributes":{"POSITION":3,"NORMAL":4}}]},{"name":"Mesh0","primitives":[{"indices":8,"material":0,"attributes":{"POSITION":6,"NORMAL":7}}]},{"name":"Mesh0","primitives":[{"indices":11,"material":0,"attributes":{"POSITION":9,"NORMAL":10}}]},{"name":"Mesh0","primitives":[{"indices":14,"material":0,"attributes":{"POSITION":12,"NORMAL":13}}]},{"name":"Mesh0","primitives":[{"indices":17,"material":0,"attributes":{"POSITION":15,"NORMAL":16}}]},{"name":"Mesh0","primitives":[{"indices":20,"material":0,"attributes":{"POSITION":18,"NORMAL":19}}]},{"name":"Mesh0","primitives":[{"indices":23,"material":0,"attributes":{"POSITION":21,"NORMAL":22}}]},{"name":"Mesh0","primitives":[{"indices":26,"material":0,"attributes":{"POSITION":24,"NORMAL":25}}]},{"name":"Mesh0","primitives":[{"indices":29,"material":0,"attributes":{"POSITION":27,"NORMAL":28}}]},{"name":"Mesh0","primitives":[{"indices":32,"material":0,"attributes":{"POSITION":30,"NORMAL":31}}]},{"name":"Mesh0","primitives":[{"indices":35,"material":0,"attributes":{"POSITION":33,"NORMAL":34}}]},{"name":"Mesh0","primitives":[{"indices":38,"material":0,"attributes":{"POSITION":36,"NORMAL":37}}]},{"name":"Mesh0","primitives":[{"indices":41,"material":0,"attributes":{"POSITION":39,"NORMAL":40}}]},{"name":"Mesh0","primitives":[{"indices":44,"material":0,"attributes":{"POSITION":42,"NORMAL":43}}]},{"name":"Mesh0","primitives":[{"indices":47,"material":0,"attributes":{"POSITION":45,"NORMAL":46}}]},{"name":"Mesh0","primitives":[{"indices":50,"material":0,"attributes":{"POSITION":48,"NORMAL":49}}]}],"accessors":[{"bufferView":0,"componentType":5126,"count":17656,"type":"VEC3","min":[-49.6371,-54.790565,-12.5],"max":[49.95175,54.66599,-3.2843137]},{"bufferView":1,"componentType":5126,"count":17656,"type":"VEC3"},{"bufferView":2,"componentType":5123,"count":35412,"type":"SCALAR"},{"bufferView":3,"componentType":5126,"count":862,"type":"VEC3","min":[23.752378,-25.054464,-12.5],"max":[36.55649,-13.090629,-3.2843137]},{"bufferView":4,"componentType":5126,"count":862,"type":"VEC3"},{"bufferView":5,"componentType":5123,"count":1716,"type":"SCALAR"},{"bufferView":6,"componentType":5126,"count":246,"type":"VEC3","min":[30.90196,-35.153915,-12.5],"max":[34.08935,-33.163548,-3.2843137]},{"bufferView":7,"componentType":5126,"count":246,"type":"VEC3"},{"bufferView":8,"componentType":5123,"count":480,"type":"SCALAR"},{"bufferView":9,"componentType":5126,"count":612,"type":"VEC3","min":[-10.997646,47.80928,-12.5],"max":[-6.972738,52.49795,-3.2843137]},{"bufferView":10,"componentType":5126,"count":612,"type":"VEC3"},{"bufferView":11,"componentType":5123,"count":1212,"type":"SCALAR"},{"bufferView":12,"componentType":5126,"count":252,"type":"VEC3","min":[28.867102,-25.08224,-12.5],"max":[29.280458,-17.648972,-3.2843137]},{"bufferView":13,"componentType":5126,"count":252,"type":"VEC3"},{"bufferView":14,"componentType":5123,"count":492,"type":"SCALAR"},{"bufferView":15,"componentType":5126,"count":3358,"type":"VEC3","min":[-19.446411,26.468729,-12.5],"max":[18.764069,54.30424,-5.6372547]},{"bufferView":16,"componentType":5126,"count":3358,"type":"VEC3"},{"bufferView":17,"componentType":5123,"count":6708,"type":"SCALAR"},{"bufferView":18,"componentType":5126,"count":1642,"type":"VEC3","min":[-20.944622,-44.44929,-12.5],"max":[-0.8433922,26.458897,-5.6372547]},{"bufferView":19,"componentType":5126,"count":1642,"type":"VEC3"},{"bufferView":20,"componentType":5123,"count":3276,"type":"SCALAR"},{"bufferView":21,"componentType":5126,"count":630,"type":"VEC3","min":[-0.10743677,-34.9273,-12.5],"max":[18.79895,26.361586,-5.6372547]},{"bufferView":22,"componentType":5126,"count":630,"type":"VEC3"},{"bufferView":23,"componentType":5123,"count":1248,"type":"SCALAR"},{"bufferView":24,"componentType":5126,"count":582,"type":"VEC3","min":[-41.27532,-34.258045,-12.5],"max":[-23.81894,-25.295881,-5.6372547]},{"bufferView":25,"componentType":5126,"count":582,"type":"VEC3"},{"bufferView":26,"componentType":5123,"count":1152,"type":"SCALAR"},{"bufferView":27,"componentType":5126,"count":426,"type":"VEC3","min":[19.73715,-33.085835,-12.5],"max":[21.754435,26.361162,-5.6372547]},{"bufferView":28,"componentType":5126,"count":426,"type":"VEC3"},{"bufferView":29,"componentType":5123,"count":840,"type":"SCALAR"},{"bufferView":30,"componentType":5126,"count":942,"type":"VEC3","min":[-3.8812575,-51.855656,-12.5],"max":[3.7000299,-47.960907,-5.6372547]},{"bufferView":31,"componentType":5126,"count":942,"type":"VEC3"},{"bufferView":32,"componentType":5123,"count":1872,"type":"SCALAR"},{"bufferView":33,"componentType":5126,"count":754,"type":"VEC3","min":[23.845594,-33.591496,-12.5],"max":[41.465668,-25.27648,-5.6372547]},{"bufferView":34,"componentType":5126,"count":754,"type":"VEC3"},{"bufferView":35,"componentType":5123,"count":1500,"type":"SCALAR"},{"bufferView":36,"componentType":5126,"count":604,"type":"VEC3","min":[23.566818,-25.333092,-12.5],"max":[36.1624,-14.220618,-5.6372547]},{"bufferView":37,"componentType":5126,"count":604,"type":"VEC3"},{"bufferView":38,"componentType":5123,"count":1200,"type":"SCALAR"},{"bufferView":39,"componentType":5126,"count":390,"type":"VEC3","min":[-36.055855,-25.286228,-12.5],"max":[-29.193983,-17.654013,-5.6372547]},{"bufferView":40,"componentType":5126,"count":390,"type":"VEC3"},{"bufferView":41,"componentType":5123,"count":768,"type":"SCALAR"},{"bufferView":42,"componentType":5126,"count":390,"type":"VEC3","min":[-0.6385621,-54.015656,-12.5],"max":[3.155649,-51.01371,-5.6372547]},{"bufferView":43,"componentType":5126,"count":390,"type":"VEC3"},{"bufferView":44,"componentType":5123,"count":768,"type":"SCALAR"},{"bufferView":45,"componentType":5126,"count":432,"type":"VEC3","min":[-2.9356995,-54.13447,-12.5],"max":[0.62838644,-51.196148,-5.6372547]},{"bufferView":46,"componentType":5126,"count":432,"type":"VEC3"},{"bufferView":47,"componentType":5123,"count":852,"type":"SCALAR"},{"bufferView":48,"componentType":5126,"count":276,"type":"VEC3","min":[0.3267974,-41.606915,-12.5],"max":[2.8373992,-37.26063,9.264706]},{"bufferView":49,"componentType":5126,"count":276,"type":"VEC3"},{"bufferView":50,"componentType":5123,"count":540,"type":"SCALAR"}],"bufferViews":[{"target":34962,"buffer":0,"byteLength":211872,"byteOffset":0},{"target":34962,"buffer":0,"byteLength":211872,"byteOffset":211872},{"target":34963,"buffer":0,"byteLength":70824,"byteOffset":423744},{"target":34962,"buffer":0,"byteLength":10344,"byteOffset":494568},{"target":34962,"buffer":0,"byteLength":10344,"byteOffset":504912},{"target":34963,"buffer":0,"byteLength":3432,"byteOffset":515256},{"target":34962,"buffer":0,"byteLength":2952,"byteOffset":518688},{"target":34962,"buffer":0,"byteLength":2952,"byteOffset":521640},{"target":34963,"buffer":0,"byteLength":960,"byteOffset":524592},{"target":34962,"buffer":0,"byteLength":7344,"byteOffset":525552},{"target":34962,"buffer":0,"byteLength":7344,"byteOffset":532896},{"target":34963,"buffer":0,"byteLength":2424,"byteOffset":540240},{"target":34962,"buffer":0,"byteLength":3024,"byteOffset":542664},{"target":34962,"buffer":0,"byteLength":3024,"byteOffset":545688},{"target":34963,"buffer":0,"byteLength":984,"byteOffset":548712},{"target":34962,"buffer":0,"byteLength":40296,"byteOffset":549696},{"target":34962,"buffer":0,"byteLength":40296,"byteOffset":589992},{"target":34963,"buffer":0,"byteLength":13416,"byteOffset":630288},{"target":34962,"buffer":0,"byteLength":19704,"byteOffset":643704},{"target":34962,"buffer":0,"byteLength":19704,"byteOffset":663408},{"target":34963,"buffer":0,"byteLength":6552,"byteOffset":683112},{"target":34962,"buffer":0,"byteLength":7560,"byteOffset":689664},{"target":34962,"buffer":0,"byteLength":7560,"byteOffset":697224},{"target":34963,"buffer":0,"byteLength":2496,"byteOffset":704784},{"target":34962,"buffer":0,"byteLength":6984,"byteOffset":707280},{"target":34962,"buffer":0,"byteLength":6984,"byteOffset":714264},{"target":34963,"buffer":0,"byteLength":2304,"byteOffset":721248},{"target":34962,"buffer":0,"byteLength":5112,"byteOffset":723552},{"target":34962,"buffer":0,"byteLength":5112,"byteOffset":728664},{"target":34963,"buffer":0,"byteLength":1680,"byteOffset":733776},{"target":34962,"buffer":0,"byteLength":11304,"byteOffset":735456},{"target":34962,"buffer":0,"byteLength":11304,"byteOffset":746760},{"target":34963,"buffer":0,"byteLength":3744,"byteOffset":758064},{"target":34962,"buffer":0,"byteLength":9048,"byteOffset":761808},{"target":34962,"buffer":0,"byteLength":9048,"byteOffset":770856},{"target":34963,"buffer":0,"byteLength":3000,"byteOffset":779904},{"target":34962,"buffer":0,"byteLength":7248,"byteOffset":782904},{"target":34962,"buffer":0,"byteLength":7248,"byteOffset":790152},{"target":34963,"buffer":0,"byteLength":2400,"byteOffset":797400},{"target":34962,"buffer":0,"byteLength":4680,"byteOffset":799800},{"target":34962,"buffer":0,"byteLength":4680,"byteOffset":804480},{"target":34963,"buffer":0,"byteLength":1536,"byteOffset":809160},{"target":34962,"buffer":0,"byteLength":4680,"byteOffset":810696},{"target":34962,"buffer":0,"byteLength":4680,"byteOffset":815376},{"target":34963,"buffer":0,"byteLength":1536,"byteOffset":820056},{"target":34962,"buffer":0,"byteLength":5184,"byteOffset":821592},{"target":34962,"buffer":0,"byteLength":5184,"byteOffset":826776},{"target":34963,"buffer":0,"byteLength":1704,"byteOffset":831960},{"target":34962,"buffer":0,"byteLength":3312,"byteOffset":833664},{"target":34962,"buffer":0,"byteLength":3312,"byteOffset":836976},{"target":34963,"buffer":0,"byteLength":1080,"byteOffset":840288}],"buffers":[{"byteLength":841368,"uri":"data:application/octet-stream;base64,"}]}